<svg width="200" height="40" viewBox="0 0 200 40" fill="none" xmlns="http://www.w3.org/2000/svg">
  <g clip-path="url(#clip0_15_4)">
    <rect width="40" height="40" rx="20" fill="#4C4C4C"/>
    <path d="M10 27 V13 L15 22 L20 13 V27 H18 V18 L15 24 L12 18 V27 H10 Z
    M21 25
    C21.5523 25 22 24.5523 22 24
    C22 23.4477 21.5523 23 21 23
    C20.4477 23 20 23.4477 20 24
    C20 24.5523 20.4477 25 21 25 Z
    M23 27 V13 H25 V25 H30 V27 H23 Z" fill="white"/>


    <path d="M 2.46 18.57 L 0 18.57 L 0 0 L 10.53 0 L 10.53 2.1 L 2.46 2.1 L 2.46 7.89 L 9.57 7.89 L 9.57 9.96 L 2.46 9.96 L 2.46 18.57 Z M 29.4 18.57 L 29.4 5.04 Q 30.75 4.71 32.085 4.53 Q 33.42 4.35 34.59 4.35 Q 37.38 4.35 38.805 5.79 Q 40.23 7.23 40.23 10.41 L 40.23 18.57 L 37.77 18.57 L 37.77 10.86 Q 37.77 9.51 37.53 8.67 Q 37.29 7.83 36.855 7.365 Q 36.42 6.9 35.805 6.72 Q 35.19 6.54 34.47 6.54 Q 33.87 6.54 33.195 6.615 Q 32.52 6.69 31.89 6.81 L 31.89 18.57 L 29.4 18.57 Z M 25.14 4.65 L 25.14 18.18 Q 24.33 18.39 22.995 18.63 Q 21.66 18.87 19.86 18.87 Q 18.27 18.87 17.22 18.405 Q 16.17 17.94 15.51 17.085 Q 14.85 16.23 14.58 15.06 Q 14.31 13.89 14.31 12.48 L 14.31 4.65 L 16.77 4.65 L 16.77 11.94 Q 16.77 14.52 17.535 15.6 Q 18.3 16.68 20.1 16.68 Q 20.49 16.68 20.895 16.65 Q 21.3 16.62 21.66 16.575 Q 22.02 16.53 22.29 16.485 A 2.89 2.89 0 0 0 22.65 16.41 L 22.65 4.65 L 25.14 4.65 Z" fill="white" transform="translate(50,10.7)"/> 
  </g>
  <defs>
    <clipPath id="clip0_15_4">
      <rect width="140" height="40" fill="white"/>
    </clipPath>
  </defs>
</svg>